<svg width="107" height="40" viewBox="0 0 107 40" fill="none" xmlns="http://www.w3.org/2000/svg">
<path fill-rule="evenodd" clip-rule="evenodd" d="M106.109 17.4546V19.2727V19.3455H103.709V23.8546C103.709 24.4364 103.782 24.8727 104 25.0909C104.218 25.3818 104.582 25.4546 105.018 25.4546C105.091 25.4546 105.309 25.4546 105.455 25.3818C105.673 25.3091 105.818 25.2364 105.964 25.1636L106.036 25.0909V26.9091C105.891 26.9818 105.673 27.0546 105.309 27.1273C105.164 27.1273 105 27.1455 104.836 27.1636C104.673 27.1818 104.509 27.2 104.364 27.2C102.4 27.2 101.455 26.1818 101.455 24.1455V19.2727H98.0364V26.9818H95.7091V19.2727H94.1091V17.4546H95.7091V16.1455C95.7091 15.4909 95.8546 14.9091 96.1455 14.4C96.4364 13.8182 96.8727 13.4546 97.3818 13.1636C97.8909 12.8727 98.5455 12.7273 99.2 12.7273C99.7818 12.7273 100.218 12.8 100.509 12.8727H100.582V14.8364L100.509 14.7636C100.145 14.6182 99.7818 14.5455 99.4909 14.5455C98.9818 14.5455 98.6182 14.6909 98.4 14.9818C98.1818 15.2727 98.0364 15.6364 98.0364 16.2182V17.4546H101.455V15.2727H101.527L103.709 14.6182H103.782V17.4546H106.109ZM46.5455 13.8182C46.7637 13.6 47.1273 13.4546 47.4909 13.4546C47.9273 13.4546 48.2182 13.6 48.5091 13.8182C48.7273 14.1091 48.8727 14.4 48.8727 14.7636C48.8727 15.1273 48.7273 15.4909 48.4364 15.7091C48.2182 15.9273 47.8546 16.0727 47.4909 16.0727C47.1273 16.0727 46.8364 15.9273 46.5455 15.7091C46.2546 15.4182 46.1091 15.1273 46.1091 14.7636C46.1091 14.4 46.2546 14.0364 46.5455 13.8182ZM37.4546 22.0364L36.8 23.7818H36.7273C36.6546 23.4182 36.4364 22.7636 36.1455 22.0364L32.7273 13.7455H29.3818V26.9818H31.5637V18.8364V17.0182C31.5637 16.8133 31.5406 16.6315 31.5204 16.4727C31.5048 16.3498 31.4909 16.2407 31.4909 16.1455H31.5637C31.6144 16.5004 31.7004 16.7847 31.7725 17.0228C31.8039 17.1263 31.8325 17.221 31.8546 17.3091L35.9273 26.9818H37.4546L41.5273 17.2364C41.5542 17.1557 41.5811 17.0452 41.6117 16.9195L41.6117 16.9195L41.6117 16.9194L41.6117 16.9194L41.6117 16.9194C41.6638 16.7053 41.7266 16.4473 41.8182 16.2182H41.8909C41.8182 17.1636 41.8182 18.0364 41.8182 18.6182V27.0546H44.1455V13.7455H40.9455L37.4546 22.0364ZM46.3273 17.4546H48.5818V26.9818H46.3273V17.4546ZM56.7273 17.3818C56.2909 17.3091 55.8546 17.2364 55.4182 17.2364C54.4 17.2364 53.4546 17.4546 52.6546 17.8909C51.8546 18.3273 51.2 18.9818 50.8364 19.7091C50.4 20.5091 50.1818 21.3818 50.1818 22.4727C50.1818 23.4182 50.4 24.2182 50.7637 24.9455C51.2 25.6727 51.7091 26.2546 52.5091 26.6182C53.2364 26.9818 54.1091 27.2 55.0546 27.2C56.1455 27.2 57.0909 26.9818 57.8182 26.5455V24.5091L57.7455 24.5818C57.3818 24.8 57.0182 25.0182 56.6546 25.1636C56.2182 25.3091 55.8546 25.3818 55.5637 25.3818C54.6182 25.3818 53.9637 25.0909 53.4546 24.5818C52.9455 24 52.6546 23.2727 52.6546 22.3273C52.6546 21.3818 52.9455 20.5818 53.4546 20C53.9637 19.4182 54.6909 19.1273 55.5637 19.1273C56.2909 19.1273 57.0909 19.3455 57.7455 19.8546L57.8182 19.9273V17.7455C57.5273 17.6 57.1637 17.4546 56.7273 17.3818ZM62.7637 17.8182C63.2 17.4546 63.7091 17.3091 64.2909 17.3091C64.6546 17.3091 64.9455 17.3818 65.0182 17.4546H65.0909V19.6364L65.0182 19.5636C64.9455 19.4909 64.7273 19.4182 64.5091 19.3455C64.4 19.3455 64.2909 19.3273 64.1818 19.3091C64.0727 19.2909 63.9637 19.2727 63.8546 19.2727C63.2727 19.2727 62.7637 19.5636 62.4 20.0727C61.9637 20.5818 61.8182 21.3091 61.8182 22.1091V26.9818H59.6364V17.4546H61.8909V19.1273C62.1091 18.5455 62.4 18.1091 62.7637 17.8182ZM70.4727 17.2364C68.8727 17.2364 67.5637 17.6727 66.6909 18.6182C65.7455 19.5636 65.3091 20.8 65.3091 22.3273C65.3091 23.7818 65.7455 25.0182 66.6182 25.8909C67.4909 26.7636 68.7273 27.2 70.1818 27.2C71.7818 27.2 73.0182 26.7636 73.8909 25.8182C74.8364 24.8727 75.2727 23.6364 75.2727 22.1091C75.2727 20.5818 74.8364 19.4182 73.9637 18.5455C73.2364 17.6727 72 17.2364 70.4727 17.2364ZM70.4 25.3818C71.2 25.3818 71.8546 25.0909 72.2909 24.5818C72.8 24 72.9455 23.2 73.0182 22.3273C73.0182 21.3091 72.7273 20.5091 72.2909 20C71.8546 19.4909 71.2 19.2 70.4 19.2C69.5273 19.2 68.9455 19.4182 68.4364 20C67.9273 20.5091 67.7091 21.3091 67.7091 22.3273C67.7091 23.2727 67.9273 24.0727 68.4364 24.5818C68.8727 25.0909 69.6 25.3818 70.4 25.3818ZM80.4364 21.3818C79.7091 21.0909 79.2727 20.8727 79.0546 20.6546C78.9091 20.5091 78.7637 20.2182 78.7637 19.9273C78.7637 19.6364 78.8364 19.4182 79.1273 19.2727C79.4182 19.1273 79.7091 18.9818 80.1455 18.9818C80.5091 18.9818 80.9455 19.0546 81.3091 19.1273C81.6027 19.186 81.8963 19.3395 82.1516 19.4731C82.2125 19.5049 82.2713 19.5356 82.3273 19.5636L82.4 19.6364V17.5273H82.3273C82.219 17.5002 82.1107 17.463 81.9949 17.4233C81.7996 17.3563 81.583 17.282 81.3091 17.2364C80.8727 17.1636 80.5091 17.1636 80.2182 17.1636C79.1273 17.1636 78.2546 17.4546 77.5273 17.9636C76.8 18.4727 76.5091 19.2 76.5091 20.0727C76.5091 20.5091 76.5818 20.9455 76.7273 21.2364C76.8727 21.5273 77.0909 21.8909 77.4546 22.1091C77.7455 22.3273 78.2546 22.6182 78.8364 22.9091C79.0061 22.9818 79.1677 23.0465 79.3158 23.1057C79.6121 23.2242 79.8546 23.3212 80 23.4182C80.2182 23.5636 80.4364 23.7091 80.5091 23.8546C80.5818 24 80.6546 24.1455 80.6546 24.3636C80.6546 25.0182 80.1455 25.3091 79.1273 25.3091C78.7637 25.3091 78.3273 25.2364 77.8909 25.0909C77.3818 24.9455 76.9455 24.7273 76.5818 24.4364L76.5091 24.3636V26.5455H76.5818C76.9455 26.6909 77.3091 26.8364 77.8182 26.9091L77.9274 26.9248L78.0363 26.9407L78.0364 26.9407C78.4531 27.0015 78.8167 27.0546 79.1273 27.0546C80.2909 27.0546 81.2364 26.7636 81.9637 26.2546C82.6909 25.6727 83.0546 25.0182 83.0546 24.0727C83.0546 23.4182 82.9091 22.8364 82.4727 22.4727C82.3587 22.4076 82.2374 22.3351 82.108 22.2578C81.6595 21.99 81.1137 21.664 80.4364 21.3818ZM85.3091 18.6182C86.1818 17.6727 87.4909 17.2364 89.0909 17.2364C90.6182 17.2364 91.7818 17.6727 92.5818 18.5455C93.4546 19.4182 93.8909 20.5818 93.8909 22.1091C93.8909 23.6364 93.4546 24.8727 92.5091 25.8182C91.6364 26.7636 90.4 27.2 88.8 27.2C87.3455 27.2 86.1091 26.7636 85.2364 25.8909C84.3637 25.0182 83.9273 23.7818 83.9273 22.3273C83.9273 20.8 84.4364 19.5636 85.3091 18.6182ZM90.9091 24.5818C90.4727 25.0909 89.8182 25.3818 89.0182 25.3818C88.1455 25.3818 87.4909 25.0909 87.0546 24.5818C86.5455 24.0727 86.3273 23.2727 86.3273 22.3273C86.3273 21.3091 86.5455 20.5091 87.0546 20C87.5637 19.4182 88.1455 19.2 89.0182 19.2C89.8182 19.2 90.4727 19.4909 90.9091 20C91.3455 20.5091 91.6364 21.3091 91.6364 22.3273C91.5637 23.2 91.3455 24 90.9091 24.5818Z" fill="#737373"/>
<path d="M0 9.3091H10.7636V19.7818H0V9.3091Z" fill="#F25022"/>
<path d="M11.9272 9.3091H22.6909V19.7818H11.9272V9.3091Z" fill="#7FBA00"/>
<path d="M0 20.8727H10.7636V31.4182H0V20.8727Z" fill="#00A4EF"/>
<path d="M11.9272 20.8727H22.6909V31.4182H11.9272V20.8727Z" fill="#FFB900"/>
</svg>
