<svg width="82" height="40" viewBox="0 0 82 40" fill="none" xmlns="http://www.w3.org/2000/svg">
<path fill-rule="evenodd" clip-rule="evenodd" d="M22.9793 24.2182C23.0521 24.5091 23.1975 24.8727 23.343 25.1636C23.6339 26.1091 23.7793 26.9818 23.5611 27.8545C23.2702 29.7455 22.0339 31.3455 20.2157 32.0727C19.6339 32.3636 18.9066 32.5091 18.1793 32.5091C18.0702 32.5091 17.9612 32.4909 17.8521 32.4727L17.8521 32.4727L17.852 32.4727C17.7429 32.4545 17.6339 32.4364 17.5248 32.4364C16.7248 32.2909 15.8521 32.0727 14.9793 31.5636C13.9611 30.9818 12.8702 30.1818 11.7793 28.9455C10.6157 30.1091 9.59751 30.9818 8.57933 31.5636C7.77933 32.0727 6.9066 32.3636 6.03387 32.4364C5.81569 32.5091 5.59751 32.5091 5.37933 32.5091C4.65205 32.5091 3.92478 32.3636 3.41569 32.2182C1.59751 31.4909 0.361145 29.8909 0.070236 28C-0.0752185 27.0545 -0.00249126 26.1818 0.361145 25.2364C0.433872 24.8727 0.579327 24.5818 0.724781 24.2909C0.810843 24.0901 0.896904 23.9119 0.978502 23.743C1.10377 23.4836 1.21852 23.2461 1.3066 22.9818V22.9091C3.05205 19.1273 4.94296 15.2727 6.97933 11.4182L7.05205 11.2727C7.14708 11.0352 7.27315 10.7976 7.40998 10.5397L7.40999 10.5397C7.4826 10.4029 7.55824 10.2604 7.63387 10.1091C7.71536 9.98686 7.79685 9.85892 7.87993 9.72847C8.09346 9.39323 8.31755 9.0414 8.57933 8.72727C9.45205 7.78182 10.543 7.2 11.8521 7.2C13.1611 7.2 14.3248 7.78182 15.1248 8.8C15.4273 9.10256 15.625 9.44009 15.8148 9.7641L15.8148 9.76414L15.8148 9.76418C15.8987 9.90743 15.9811 10.048 16.0702 10.1818C16.2157 10.5455 16.4339 10.9818 16.6521 11.3455L16.7248 11.4909C18.7611 15.2727 20.6521 19.1273 22.3975 22.9091C22.543 23.3455 22.7611 23.7818 22.9793 24.2182ZM43.0521 13.5273C43.0521 14.4727 42.3248 15.2 41.3793 15.2C40.4339 15.2 39.7066 14.4727 39.7066 13.5273C39.7066 12.5818 40.4339 11.8545 41.3793 11.8545C42.3248 11.9273 43.0521 12.6545 43.0521 13.5273ZM36.2157 16.8727V17.3091C36.2157 17.3091 35.4157 16.2909 33.743 16.2909C30.9793 16.2909 28.7975 18.4 28.7975 21.3091C28.7975 24.2182 30.9793 26.3273 33.743 26.3273C35.4884 26.3273 36.2157 25.3091 36.2157 25.3091V25.7455C36.2157 25.9636 36.3611 26.1091 36.5793 26.1091H38.6157V16.5091H36.5793C36.3611 16.5091 36.2157 16.7273 36.2157 16.8727ZM34.1793 24C35.0521 24 35.8521 23.5636 36.2157 22.9818V19.4909C35.9248 18.9818 35.0521 18.4727 34.1793 18.4727C32.5066 18.4727 31.2702 19.4909 31.2702 21.2364C31.2702 22.9818 32.5066 24 34.1793 24ZM42.6157 26.0364V16.5091H40.143V26.0364H42.6157ZM74.3975 17.3091C74.3975 17.3091 75.1975 16.2909 76.8702 16.2909C79.6339 16.2909 81.743 18.4 81.743 21.3091C81.743 24.2182 79.5611 26.3273 76.7975 26.3273C75.1248 26.3273 74.3248 25.3091 74.3248 25.3091V25.7455C74.3248 25.9636 74.1793 26.1091 73.9611 26.1091H71.9248V12H74.3975V17.3091ZM76.4339 24C75.4884 24 74.7611 23.4909 74.3975 22.9818V19.5636C74.7611 19.0545 75.6339 18.5455 76.4339 18.5455C78.1066 18.5455 79.343 19.5636 79.343 21.3091C79.343 23.0545 78.1066 24 76.4339 24ZM70.6157 26.0364V20.3636C70.6157 18.8364 70.3248 17.8909 69.452 17.2364C68.7248 16.5818 67.8521 16.2909 66.7611 16.2909C65.8157 16.2909 64.8702 16.5818 64.143 17.3091V16.8727C64.143 16.6545 63.9975 16.5091 63.7793 16.5091H61.8157V26.0364H64.2884V19.4182C64.7248 18.8364 65.5248 18.4727 66.2521 18.4727C67.6339 18.4727 68.143 19.0545 68.143 20.6545V26.0364H70.6157ZM55.8521 16.2909C54.1793 16.2909 53.3793 17.3091 53.3793 17.3091V12H50.9066V26.1091H52.943C53.1611 26.1091 53.3066 25.9636 53.3066 25.7455V25.3091C53.3066 25.3091 54.1066 26.3273 55.7793 26.3273C58.543 26.3273 60.7248 24.2182 60.7248 21.3091C60.8702 18.4 58.6884 16.2909 55.8521 16.2909ZM53.4521 22.9818C53.8157 23.4909 54.543 24 55.4884 24C57.0884 24 58.3975 23.0545 58.3975 21.3091C58.3975 19.5636 57.1611 18.5455 55.4884 18.5455C54.6884 18.5455 53.8157 19.0545 53.4521 19.5636V22.9818ZM48.7975 16.2909C49.5248 16.2909 49.8884 16.4364 49.8884 16.4364V18.6909C49.8884 18.6909 47.8521 18.0364 46.543 19.4182V26.1091H44.0702V16.5091H46.1066C46.3248 16.5091 46.4702 16.6545 46.4702 16.8727V17.3091C47.0521 16.7273 48.0702 16.2909 48.7975 16.2909ZM11.7793 26.4727C10.3975 24.7273 9.52478 23.1273 9.16115 21.7455C9.01569 21.1636 9.01569 20.6545 9.08842 20.2182C9.16115 19.7818 9.3066 19.4909 9.52478 19.1273C10.0339 18.4727 10.8339 18.0364 11.7793 18.0364C12.7248 18.0364 13.5975 18.4727 14.0339 19.1273C14.2521 19.4182 14.3975 19.7818 14.4702 20.2182C14.543 20.6545 14.543 21.2364 14.3975 21.7455C14.0339 23.1273 13.1611 24.7273 11.7793 26.4727ZM19.6339 30.6909C20.8702 30.1818 21.8157 29.0182 21.9611 27.7091C22.1066 27.0545 22.0339 26.4 21.743 25.7455C21.6702 25.5273 21.5248 25.2364 21.3793 24.9455C21.2509 24.7314 21.1476 24.4921 21.0399 24.2424C20.9647 24.068 20.8872 23.8886 20.7975 23.7091C19.0521 19.9273 17.1611 16.0727 15.1975 12.2909L15.1248 12.1455C14.9793 11.7818 14.7611 11.3455 14.543 10.9818C14.3248 10.6182 14.1066 10.2545 13.8157 9.89091C13.3066 9.30909 12.5793 8.94545 11.7793 8.94545C10.9793 8.94545 10.2521 9.30909 9.74296 9.89091C9.45205 10.1818 9.23387 10.5455 9.01569 10.9818C8.87024 11.3455 8.65205 11.7818 8.43387 12.1455L8.36115 12.2909C6.39751 16 4.5066 19.8545 2.76115 23.6364V23.7091C2.70541 23.8206 2.64968 23.9273 2.59516 24.0317C2.43624 24.336 2.28763 24.6206 2.17933 24.9455C2.03387 25.2364 1.88842 25.5273 1.81569 25.7455C1.59751 26.4727 1.52478 27.0545 1.59751 27.7091C1.74296 29.0182 2.68842 30.1818 3.92478 30.6909C4.5066 30.9091 5.16115 30.9818 5.88842 30.9091C6.54296 30.8364 7.19751 30.6182 7.85205 30.2545C8.79751 29.7455 9.74296 28.9454 10.7611 27.7818C9.08842 25.7455 7.99751 23.8545 7.63387 22.1818C7.41569 21.3818 7.41569 20.6545 7.48842 20C7.56115 19.3455 7.77933 18.7636 8.14296 18.2545C8.94296 17.0909 10.3248 16.4364 11.7793 16.4364C13.3066 16.4364 14.6157 17.0909 15.4157 18.2545C15.7066 18.7636 15.9975 19.3455 16.0702 20C16.143 20.6545 16.0702 21.3818 15.9248 22.1818C15.4884 23.8545 14.4702 25.7455 12.7975 27.7818C13.8884 28.9454 14.7611 29.7455 15.7066 30.2545C16.3611 30.6182 17.0157 30.8364 17.6702 30.9091C18.3248 31.0545 19.0521 30.9091 19.6339 30.6909Z" fill="#FF5A5F"/>
</svg>
