<svg width="148" height="40" viewBox="0 0 148 40" fill="none" xmlns="http://www.w3.org/2000/svg">
<path fill-rule="evenodd" clip-rule="evenodd" d="M57.7993 19.9584C57.7993 17.9221 56.3248 16.1766 53.5971 16.1766C50.8693 16.1766 49.3948 17.9948 49.3948 19.9584V20.1766C49.3948 22.213 50.8693 24.0312 53.5971 24.0312C56.3248 24.0312 57.7993 22.213 57.7993 20.1766V19.9584ZM53.5971 25.7039C49.8372 25.7039 47.4043 23.013 47.4043 20.2493V19.9584C47.4043 17.1221 49.8372 14.5039 53.5971 14.5039C57.357 14.5039 59.7899 17.1221 59.7899 19.9584V20.3221C59.7899 23.0857 57.357 25.7039 53.5971 25.7039Z" fill="#388DB9"/>
<path fill-rule="evenodd" clip-rule="evenodd" d="M6.48767 16.9039L4.20224 21.2675H8.92055L6.48767 16.9039ZM11.1323 25.3403L9.73151 22.7948H3.46501L2.13798 25.3403H0L5.75044 14.8675H7.37235L13.1965 25.2675H11.1323V25.3403Z" fill="#0A0B09"/>
<path fill-rule="evenodd" clip-rule="evenodd" d="M22.3159 25.7455C18.4823 25.7455 16.7129 23.7091 16.7129 21.0182V14.9091H18.7034V21.0182C18.7034 22.9091 20.0304 24.0727 22.4633 24.0727C24.9699 24.0727 26.0021 22.9091 26.0021 21.0182V14.9091H27.9926V21.0182C27.9926 23.5636 26.297 25.7455 22.3159 25.7455Z" fill="#0A0B09"/>
<path fill-rule="evenodd" clip-rule="evenodd" d="M39.0511 16.5091V25.3091H37.0606V16.5091H32.416V14.9091H43.6957V16.5091H39.0511Z" fill="#0A0B09"/>
<path fill-rule="evenodd" clip-rule="evenodd" d="M77.5348 25.3091V17.0909L77.0187 17.9636L72.5953 25.3091H71.6369L67.2135 17.9636L66.6975 17.0909V25.3091H64.7806V14.9091H67.5084L71.7107 22.0364L72.153 22.9091L72.6691 22.0364L76.7976 14.9091H79.5253V25.3091H77.5348Z" fill="#0A0B09"/>
<path fill-rule="evenodd" clip-rule="evenodd" d="M90.0677 16.9455L87.7823 21.3091H92.5006L90.0677 16.9455ZM94.6386 25.3091L93.2379 22.7636H86.9714L85.6443 25.3091H83.5063L89.2568 14.9091H90.8787L96.7029 25.3091H94.6386Z" fill="#0A0B09"/>
<path fill-rule="evenodd" clip-rule="evenodd" d="M104.812 16.5091V25.3091H102.822V16.5091H98.1774V14.9091H109.457V16.5091H104.812Z" fill="#0A0B09"/>
<path fill-rule="evenodd" clip-rule="evenodd" d="M119.41 16.5091V25.3091H117.419V16.5091H112.775V14.9091H124.054V16.5091H119.41Z" fill="#0A0B09"/>
<path fill-rule="evenodd" clip-rule="evenodd" d="M128.994 25.3091V15.8545C129.805 15.8545 130.1 15.4182 130.1 14.8364H130.911V25.2364H128.994" fill="#0A0B09"/>
<path fill-rule="evenodd" clip-rule="evenodd" d="M146.54 17.8182C145.582 16.9455 144.181 16.1455 142.264 16.1455C139.463 16.1455 137.841 18.0364 137.841 20.0727V20.2909C137.841 22.2545 139.463 24.0727 142.411 24.0727C144.181 24.0727 145.655 23.2727 146.54 22.4L147.72 23.6364C146.54 24.7273 144.549 25.7455 142.264 25.7455C138.283 25.7455 135.776 23.2 135.776 20.3636V20C135.776 17.1636 138.43 14.5455 142.338 14.5455C144.549 14.5455 146.614 15.4909 147.72 16.6545L146.54 17.8182Z" fill="#0A0B09"/>
<path fill-rule="evenodd" clip-rule="evenodd" d="M54.9016 18.1091C55.2702 18.3273 55.3439 18.8364 55.1228 19.1273L53.2797 21.8909C53.0585 22.2545 52.5424 22.3273 52.1738 22.1091C51.8052 21.8909 51.7315 21.3818 51.9527 21.0909L53.7957 18.3273C54.0906 18.0364 54.533 17.8909 54.9016 18.1091Z" fill="#0A0B09"/>
</svg>
