<svg width="91" height="26" viewBox="0 0 91 26" fill="none" xmlns="http://www.w3.org/2000/svg">
<path d="M67.2511 19.4303C64.1637 19.4303 62.2453 17.6419 62.2453 14.7594C62.2453 11.7677 64.0156 9.90644 66.8661 9.90644H67.1052C67.4628 9.90644 67.9551 9.9181 68.6276 10.0021V6.39099H70.6411V19.1048C70.6411 19.1048 68.7279 19.4303 67.2511 19.4303ZM67.233 11.4918C65.2825 11.4918 64.3341 12.5446 64.3341 14.7092C64.3341 16.6527 65.4785 17.8607 67.317 17.8607C67.6705 17.8607 68.0752 17.8373 68.627 17.7901V11.6213C68.0758 11.5326 67.6314 11.4918 67.233 11.4918ZM39.6705 19.1386L34.2314 9.64688L34.2297 19.1386H32.334V7.12243H34.9879L40.427 16.5296L40.4247 7.12243H42.3455V19.1386H39.6705ZM56.9958 19.3235C56.08 19.3235 55.1252 19.2209 53.9884 19.0022L53.8653 18.9788V17.3001L54.045 17.3386C55.0476 17.5527 55.9132 17.7353 56.7794 17.7353C57.4787 17.7353 59.1079 17.6256 59.1079 16.5961C59.1079 15.7329 57.9821 15.5159 57.078 15.3426L57.0209 15.331C56.8517 15.2995 56.6925 15.2674 56.5583 15.2336C55.2319 14.8894 53.8169 14.3721 53.8169 12.5948C53.8169 10.8613 55.1888 9.86794 57.5814 9.86794C58.7299 9.86794 59.5634 9.99043 60.2336 10.0908L60.5591 10.1386V11.7677L60.3858 11.7362C59.6276 11.5968 58.7386 11.4533 57.8841 11.4533C56.934 11.4533 55.8065 11.6312 55.8065 12.4764C55.8065 13.1781 56.7292 13.3787 57.7978 13.6115C59.2922 13.9346 61.1447 14.3406 61.1447 16.3797C61.1447 18.2503 59.634 19.3235 56.9958 19.3235ZM76.2937 19.3235C74.2096 19.3235 72.2796 18.9561 72.2796 16.2951C72.2796 13.3991 75.2642 13.3991 77.0485 13.3991C77.2258 13.3991 78.0646 13.4382 78.3218 13.4493C78.3195 11.8249 78.299 11.4376 75.9432 11.4376C75.0093 11.4376 73.9722 11.6219 73.0565 11.7864L72.8815 11.8179V10.2138L72.9993 10.1887C74.0609 9.97293 75.0846 9.86794 76.1281 9.86794C78.411 9.86794 80.3452 10.0978 80.3452 12.9302V19.1071L80.2064 19.1229C78.6251 19.3002 77.3699 19.3235 76.2943 19.3235H76.2937ZM76.9983 14.8323C75.2776 14.8323 74.2114 15.0854 74.2114 16.3453C74.2114 17.8035 75.5716 17.9242 76.8478 17.9242C77.3238 17.9242 78.1806 17.863 78.4425 17.8443V14.8824C78.0739 14.8667 77.1144 14.8323 76.9983 14.8323ZM48.0412 19.3235C45.9542 19.3235 44.0247 18.9561 44.0247 16.2951C44.0247 13.3991 47.0094 13.3991 48.7931 13.3991C48.971 13.3991 49.8115 13.4382 50.0693 13.4493C50.067 11.8249 50.0442 11.4376 47.6883 11.4376C46.7539 11.4376 45.7168 11.6219 44.8011 11.7864L44.6261 11.8179V10.2138L44.7468 10.1887C45.7754 9.97607 46.8229 9.86858 47.8732 9.86794C50.1556 9.86794 52.0904 10.0978 52.0904 12.9302V19.1071L51.951 19.1229C50.3703 19.3002 49.1145 19.3235 48.0412 19.3235ZM48.7429 14.8323C47.0228 14.8323 45.9589 15.0854 45.9589 16.3453C45.9589 17.8035 47.3168 17.9242 48.593 17.9242C49.0713 17.9242 49.9281 17.863 50.19 17.8443V14.8824C49.8185 14.8667 48.8596 14.8323 48.7435 14.8323" fill="#231F20"/>
<mask id="mask0" mask-type="alpha" maskUnits="userSpaceOnUse" x="81" y="9" width="10" height="15">
<path d="M81.6602 9.32318H90.4252V23.322H81.6602V9.32318Z" fill="white"/>
</mask>
<g mask="url(#mask0)">
<path d="M88.3632 23.2215V19.2797C87.5776 19.3894 87.1605 19.3894 86.8234 19.3894C86.0254 19.3894 85.1394 19.2161 84.4535 18.9268C82.9177 18.2881 82.002 16.6666 82.002 14.586C82.002 13.5478 82.2551 11.6492 83.9478 10.6261C84.7976 10.1187 85.8003 9.90167 87.3087 9.90167C87.8482 9.90167 88.5773 9.9425 89.2813 9.98333L90.4251 10.0428V22.3081L88.3632 23.2215ZM87.1582 11.4876C85.112 11.487 84.0749 12.5311 84.0749 14.586C84.0749 17.2318 85.6218 17.7877 86.9225 17.7877C87.2393 17.7877 87.5951 17.7877 88.3831 17.6873V11.5448C87.766 11.504 87.4807 11.4876 87.1576 11.4876H87.1582Z" fill="#231F20"/>
</g>
<mask id="mask1" mask-type="alpha" maskUnits="userSpaceOnUse" x="15" y="0" width="16" height="20">
<path d="M15.166 0H30.9147V19.239H15.166V0Z" fill="white"/>
</mask>
<g mask="url(#mask1)">
<path d="M23.3383 0L16.6783 18.2976C16.596 18.5229 16.4519 18.7204 16.2625 18.8676C16.0731 19.0148 15.8461 19.1057 15.6074 19.1299V19.1387H22.6477C23.1989 19.1387 23.6707 18.7881 23.8463 18.2982L30.5086 0H23.3383Z" fill="#0996C7"/>
</g>
<path d="M15.0328 18.8611C15.4411 18.8611 15.7986 18.6581 16.0173 18.3507C16.0401 18.3186 16.12 18.2067 16.1766 18.0544L18.6194 11.3397L17.1903 7.41824C17.1071 7.21967 16.9723 7.04697 16.7998 6.91803C16.6274 6.78909 16.4236 6.70862 16.2096 6.68494C15.9956 6.66126 15.7791 6.69524 15.5827 6.78336C15.3862 6.87147 15.2169 7.01052 15.0923 7.1861C15.0689 7.21818 14.9739 7.36108 14.933 7.48241L12.4902 14.1948L13.9257 18.132C14.0188 18.3484 14.1733 18.5328 14.37 18.6623C14.5668 18.7919 14.7972 18.861 15.0328 18.8611Z" fill="#0996C7"/>
<mask id="mask2" mask-type="alpha" maskUnits="userSpaceOnUse" x="0" y="5" width="16" height="21">
<path d="M0 5.82355H15.7486V25.5368H0V5.82355Z" fill="white"/>
</mask>
<g mask="url(#mask2)">
<path d="M15.5549 6.39746H8.43708C7.88588 6.39746 7.414 6.74626 7.2361 7.23856L0.576172 25.5361H7.74647L14.407 7.23914C14.4934 7.00109 14.6487 6.79415 14.8531 6.64468C15.0576 6.4952 15.3018 6.40995 15.5549 6.39979V6.39746Z" fill="#0996C7"/>
</g>
</svg>
